<mxfile host="app.diagrams.net" agent="Mozilla/5.0 (Windows NT 10.0; Win64; x64) AppleWebKit/537.36 (KHTML, like Gecko) Chrome/134.0.0.0 Safari/537.36 OPR/119.0.0.0" version="27.1.5">
  <diagram id="C5RBs43oDa-KdzZeNtuy" name="Page-1">
    <mxGraphModel dx="1611" dy="778" grid="1" gridSize="10" guides="1" tooltips="1" connect="1" arrows="1" fold="1" page="1" pageScale="1" pageWidth="827" pageHeight="1169" math="0" shadow="0">
      <root>
        <mxCell id="WIyWlLk6GJQsqaUBKTNV-0" />
        <mxCell id="WIyWlLk6GJQsqaUBKTNV-1" parent="WIyWlLk6GJQsqaUBKTNV-0" />
        <mxCell id="vaapL6yAOFuLathCSvbo-5" style="edgeStyle=orthogonalEdgeStyle;rounded=0;orthogonalLoop=1;jettySize=auto;html=1;entryX=0.5;entryY=0;entryDx=0;entryDy=0;" edge="1" parent="WIyWlLk6GJQsqaUBKTNV-1" source="vaapL6yAOFuLathCSvbo-0" target="vaapL6yAOFuLathCSvbo-2">
          <mxGeometry relative="1" as="geometry" />
        </mxCell>
        <mxCell id="vaapL6yAOFuLathCSvbo-0" value="Send Request" style="rounded=1;whiteSpace=wrap;html=1;" vertex="1" parent="WIyWlLk6GJQsqaUBKTNV-1">
          <mxGeometry x="354" y="30" width="120" height="60" as="geometry" />
        </mxCell>
        <mxCell id="vaapL6yAOFuLathCSvbo-14" value="" style="edgeStyle=orthogonalEdgeStyle;rounded=0;orthogonalLoop=1;jettySize=auto;html=1;" edge="1" parent="WIyWlLk6GJQsqaUBKTNV-1" source="vaapL6yAOFuLathCSvbo-2" target="vaapL6yAOFuLathCSvbo-8">
          <mxGeometry relative="1" as="geometry" />
        </mxCell>
        <mxCell id="vaapL6yAOFuLathCSvbo-2" value="Get Reservation Info" style="shape=parallelogram;perimeter=parallelogramPerimeter;whiteSpace=wrap;html=1;fixedSize=1;" vertex="1" parent="WIyWlLk6GJQsqaUBKTNV-1">
          <mxGeometry x="345" y="140" width="137" height="40" as="geometry" />
        </mxCell>
        <mxCell id="vaapL6yAOFuLathCSvbo-7" value="Create Reservation" style="ellipse;whiteSpace=wrap;html=1;" vertex="1" parent="WIyWlLk6GJQsqaUBKTNV-1">
          <mxGeometry x="354" y="585" width="120" height="40" as="geometry" />
        </mxCell>
        <mxCell id="vaapL6yAOFuLathCSvbo-11" style="edgeStyle=orthogonalEdgeStyle;rounded=0;orthogonalLoop=1;jettySize=auto;html=1;" edge="1" parent="WIyWlLk6GJQsqaUBKTNV-1" source="vaapL6yAOFuLathCSvbo-8" target="vaapL6yAOFuLathCSvbo-9">
          <mxGeometry relative="1" as="geometry" />
        </mxCell>
        <mxCell id="vaapL6yAOFuLathCSvbo-8" value="Client Exist In Database" style="rhombus;whiteSpace=wrap;html=1;" vertex="1" parent="WIyWlLk6GJQsqaUBKTNV-1">
          <mxGeometry x="351" y="220" width="126" height="80" as="geometry" />
        </mxCell>
        <mxCell id="vaapL6yAOFuLathCSvbo-12" style="edgeStyle=orthogonalEdgeStyle;rounded=0;orthogonalLoop=1;jettySize=auto;html=1;" edge="1" parent="WIyWlLk6GJQsqaUBKTNV-1" source="vaapL6yAOFuLathCSvbo-9" target="vaapL6yAOFuLathCSvbo-10">
          <mxGeometry relative="1" as="geometry" />
        </mxCell>
        <mxCell id="vaapL6yAOFuLathCSvbo-9" value="Room Exist In Database" style="rhombus;whiteSpace=wrap;html=1;" vertex="1" parent="WIyWlLk6GJQsqaUBKTNV-1">
          <mxGeometry x="351" y="330" width="126" height="80" as="geometry" />
        </mxCell>
        <mxCell id="vaapL6yAOFuLathCSvbo-15" style="edgeStyle=orthogonalEdgeStyle;rounded=0;orthogonalLoop=1;jettySize=auto;html=1;entryX=0.5;entryY=0;entryDx=0;entryDy=0;" edge="1" parent="WIyWlLk6GJQsqaUBKTNV-1" source="vaapL6yAOFuLathCSvbo-10" target="vaapL6yAOFuLathCSvbo-7">
          <mxGeometry relative="1" as="geometry" />
        </mxCell>
        <mxCell id="vaapL6yAOFuLathCSvbo-10" value="Owner Exist In Database" style="rhombus;whiteSpace=wrap;html=1;" vertex="1" parent="WIyWlLk6GJQsqaUBKTNV-1">
          <mxGeometry x="351" y="450" width="126" height="80" as="geometry" />
        </mxCell>
      </root>
    </mxGraphModel>
  </diagram>
</mxfile>
